PathFileType	4	(X/Y/Z)	./resultDataOpenSim/trcMotMarkerGrf/sub10/qtm-12-06.trc
DataRate	CameraRate	NumFrames	NumMarkers	Units	OrigDataRate	OrigDataStartFrame	OrigNumFrames
250.000000	250.000000	9	24	m	250.000000	121	483
Frame#	Time	L.Toe.Tip			R.Toe.Tip			L.Ankle.Lat			R.Ankle.Lat			L.Ankle.Med			R.Ankle.Med			L.Heel			R.Heel			L.Knee.Lat			R.Knee.Lat			L.Knee.Med			R.Knee.Med			L.Thigh.Upper			R.Thigh.Upper			L.ASIS			R.ASIS			V.Sacral			L.Acromium			R.Acromium			C7			L.Elbow			R.Elbow			L.Wrist.Lat			R.Wrist.Lat
		X1	Y1	Z1	X2	Y2	Z2	X3	Y3	Z3	X4	Y4	Z4	X5	Y5	Z5	X6	Y6	Z6	X7	Y7	Z7	X8	Y8	Z8	X9	Y9	Z9	X10	Y10	Z10	X11	Y11	Z11	X12	Y12	Z12	X13	Y13	Z13	X14	Y14	Z14	X15	Y15	Z15	X16	Y16	Z16	X17	Y17	Z17	X18	Y18	Z18	X19	Y19	Z19	X20	Y20	Z20	X21	Y21	Z21	X22	Y22	Z22	X23	Y23	Z23	X24	Y24	Z24

121	0.48	-0.38010417	0.071498972	-0.12101893	-0.77850368	0.039475861	0.040409781	-0.51560614	0.07885914	-0.12477931	-0.91768518	0.055253495	0.074642403	-0.49154072	0.10907737	-0.04561385	-0.90012362	0.081178336	-0.0099982158	-0.56652564	0.043085942	-0.06303658	-0.97016592	0.032019253	0.025592419	-0.5398676	0.47020308	-0.16468902	-0.80113173	0.44240591	0.11573754	-0.50349595	0.45369207	-0.047297235	-0.79253359	0.44456495	-0.014521982	-0.68063774	0.82792871	-0.21535553	-0.73592381	0.85245679	0.16693403	-0.63580392	0.9376842	-0.14151128	-0.65151637	0.94018461	0.10262907	-0.84134154	0.95222136	-0.039481623	-0.70140102	1.4109291	-0.17254873	-0.71323028	1.3999634	0.15582233	-0.79402476	1.4355986	-0.014240993	-0.82916372	1.0903336	-0.23399366	-0.73858176	1.0440102	0.20193944	-0.72388507	0.86997905	-0.25059954	-0.55401699	0.87994562	0.21601068
122	0.484	-0.36232256	0.07406487	-0.12003748	-0.77852816	0.039357122	0.040349003	-0.49785719	0.078036186	-0.12528783	-0.91914789	0.055141497	0.074656866	-0.47515514	0.1089916	-0.045986728	-0.89989484	0.081128995	-0.010127011	-0.54827875	0.041241204	-0.064231145	-0.97017495	0.032155101	0.025399647	-0.53286575	0.46893793	-0.16475941	-0.79863596	0.44175702	0.11539972	-0.49699517	0.45277303	-0.047158527	-0.78972086	0.44392454	-0.014861581	-0.67420132	0.8268684	-0.21557893	-0.73148321	0.85145612	0.16661924	-0.62958002	0.93653226	-0.14163755	-0.646268	0.93905006	0.10273324	-0.83571099	0.95097493	-0.04038434	-0.69585135	1.4096759	-0.17257146	-0.7073958	1.3986575	0.15580668	-0.78837144	1.4343145	-0.01415306	-0.82478391	1.0896924	-0.23387096	-0.73060077	1.0424621	0.20278831	-0.72056471	0.86903203	-0.25121269	-0.54389164	0.88054871	0.21515976
123	0.488	-0.34483807	0.076859604	-0.11905536	-0.77850374	0.03923087	0.040277975	-0.48028627	0.077385189	-0.12585771	-0.92025483	0.055109698	0.074571884	-0.45894169	0.10904759	-0.046393685	-0.89959011	0.08108731	-0.010297517	-0.52991877	0.039320364	-0.06573389	-0.97017613	0.032304726	0.025206734	-0.52581771	0.46756608	-0.16479364	-0.7960303	0.44108102	0.11502686	-0.49049171	0.4517455	-0.046982027	-0.78681523	0.44322513	-0.015240958	-0.6676354	0.82575704	-0.21578403	-0.72703376	0.85039987	0.16635036	-0.62319198	0.93534524	-0.14173941	-0.641078	0.93786586	0.10277927	-0.82986914	0.94962841	-0.04109696	-0.69025961	1.408363	-0.17261868	-0.70150176	1.3972855	0.1557655	-0.78269623	1.4329824	-0.014019501	-0.82009885	1.0889969	-0.23339621	-0.72261989	1.0408748	0.20361376	-0.71718519	0.86802331	-0.2518287	-0.53381215	0.88113337	0.21430141
124	0.492	-0.32768381	0.079924569	-0.11807928	-0.77840505	0.039142809	0.04022167	-0.4629763	0.076945819	-0.12652013	-0.92072163	0.055168405	0.074425695	-0.44299912	0.10921026	-0.046830436	-0.89923811	0.081055176	-0.01049956	-0.51147461	0.037168873	-0.067554689	-0.9701668	0.032475057	0.024994711	-0.51872675	0.46609999	-0.16477626	-0.79327444	0.44039014	0.11464259	-0.48393147	0.45062068	-0.046729435	-0.7838037	0.4424626	-0.015639957	-0.66089873	0.82459697	-0.21595918	-0.72255107	0.84929467	0.16609605	-0.61660998	0.93413279	-0.14180636	-0.63593004	0.93663379	0.10277256	-0.82408021	0.94819026	-0.041825781	-0.68462671	1.4069839	-0.17267997	-0.69554875	1.3958504	0.15569268	-0.77702558	1.4316074	-0.013915503	-0.81547633	1.0882497	-0.23307099	-0.71463834	1.0392505	0.2044116	-0.71375814	0.86695313	-0.25244924	-0.52379717	0.88169724	0.21345285
125	0.496	-0.31091184	0.083271403	-0.11711437	-0.77825875	0.039093622	0.040173882	-0.44599834	0.076744964	-0.12729452	-0.92070175	0.055296237	0.074263061	-0.42743664	0.10947601	-0.047346164	-0.89886565	0.081026712	-0.01071878	-0.4931852	0.034963987	-0.069532804	-0.97014754	0.03267013	0.02475415	-0.51161728	0.46457235	-0.16472049	-0.79031865	0.43970096	0.11426653	-0.47736197	0.44938642	-0.046435126	-0.78069062	0.44165049	-0.016043546	-0.6540883	0.82337286	-0.21612831	-0.71801455	0.84816567	0.16581452	-0.60995614	0.9328894	-0.14187919	-0.63077568	0.9353701	0.10273392	-0.81840746	0.94661629	-0.042559449	-0.67896002	1.4055402	-0.17274909	-0.68956422	1.3943578	0.15558753	-0.77135658	1.4301881	-0.013851503	-0.81116625	1.0874481	-0.23317808	-0.70665327	1.0375871	0.2051772	-0.7103116	0.86581972	-0.25308998	-0.51385844	0.88223111	0.21262376
126	0.5	-0.29456908	0.086867256	-0.11616175	-0.77810686	0.039052366	0.040119329	-0.42939795	0.076784055	-0.1281818	-0.92046309	0.055469923	0.074114567	-0.41230663	0.10986731	-0.047997835	-0.89847537	0.081001776	-0.010950072	-0.47541089	0.033067481	-0.071470637	-0.9701221	0.032893029	0.024515015	-0.50448722	0.46302731	-0.16465158	-0.78713505	0.43902767	0.11390538	-0.47092532	0.44801189	-0.046183552	-0.77749652	0.44081475	-0.016451833	-0.64731632	0.82207292	-0.2163169	-0.71341919	0.84703344	0.16548755	-0.60336724	0.93160388	-0.14199555	-0.62558549	0.93408621	0.10268146	-0.81264723	0.94484025	-0.043079096	-0.67327314	1.4040396	-0.17282986	-0.68358169	1.3928127	0.15545612	-0.76567988	1.428726	-0.013820309	-0.80711105	1.0865943	-0.23362486	-0.69867308	1.0358829	0.20591328	-0.7068729	0.86461775	-0.25376931	-0.503998	0.88272962	0.21181098
127	0.504	-0.27868746	0.090635887	-0.11522186	-0.77796719	0.038999326	0.040057206	-0.41319828	0.077028019	-0.12917865	-0.92022024	0.055666425	0.073988864	-0.39761062	0.110368	-0.048774755	-0.89806318	0.080986428	-0.011193044	-0.45829448	0.031626502	-0.073338314	-0.97009463	0.033146397	0.02432031	-0.4973211	0.46149427	-0.16458154	-0.78376253	0.43836197	0.11356685	-0.46472234	0.44648149	-0.046012214	-0.7742287	0.43997493	-0.016868612	-0.64057681	0.82070485	-0.21651771	-0.70877813	0.84589868	0.16513715	-0.59685122	0.93027462	-0.14214188	-0.62035628	0.93278168	0.10262227	-0.80661326	0.94287893	-0.043322043	-0.66757358	1.4024844	-0.17293103	-0.67761206	1.3912174	0.15530792	-0.7599932	1.4272259	-0.013812453	-0.80308283	1.0856857	-0.23413874	-0.69072393	1.0341439	0.20663468	-0.70343101	0.8633465	-0.25448229	-0.49419822	0.88320379	0.21098842
128	0.508	-0.26329638	0.094471646	-0.11430325	-0.7778396	0.038935342	0.03999693	-0.39740716	0.077421388	-0.13026757	-0.92008664	0.055870346	0.073872707	-0.3833582	0.11091468	-0.049608323	-0.89763762	0.080984716	-0.011439875	-0.44174878	0.030528276	-0.075248977	-0.97006774	0.033430929	0.024169185	-0.49011062	0.45998417	-0.16451873	-0.78033183	0.43766248	0.11324788	-0.45872839	0.44481174	-0.045885973	-0.77088329	0.43912919	-0.017286982	-0.63379606	0.8192838	-0.21670706	-0.70411381	0.84475194	0.16480433	-0.59033214	0.92891187	-0.14227908	-0.61509529	0.93145198	0.10255808	-0.80041904	0.94086463	-0.043592581	-0.66185591	1.4008721	-0.17306042	-0.67164053	1.3895716	0.15514693	-0.75430084	1.4256878	-0.013817886	-0.7989188	1.0847155	-0.23453006	-0.68283647	1.0323811	0.20735895	-0.69993648	0.86201515	-0.2551934	-0.48443329	0.88367528	0.21012023
129	0.512	-0.24842776	0.098259519	-0.11342102	-0.77772107	0.038868729	0.039947092	-0.38202021	0.077936664	-0.13140307	-0.9200402	0.056081268	0.073750291	-0.36958529	0.11144987	-0.050455898	-0.89721385	0.080996466	-0.011677039	-0.42572175	0.029652508	-0.077284511	-0.97004117	0.033746337	0.024019015	-0.48282499	0.45851036	-0.1644874	-0.77698683	0.43688906	0.11292042	-0.45285212	0.44303678	-0.045754732	-0.7674591	0.43826036	-0.017690672	-0.62692192	0.8178126	-0.21686974	-0.69942873	0.8435777	0.16449733	-0.58376329	0.92752659	-0.14238124	-0.60980959	0.93009621	0.102494	-0.79428474	0.93893107	-0.044190334	-0.65611654	1.3992044	-0.1732185	-0.66565355	1.3878747	0.15497012	-0.7486102	1.4241087	-0.013834054	-0.79459149	1.0836816	-0.23476854	-0.67502618	1.030604	0.20809068	-0.69635158	0.86063353	-0.25586857	-0.47469551	0.88415758	0.20919318
